<svg width="68" height="68" viewBox="0 0 68 68" fill="none" xmlns="http://www.w3.org/2000/svg">
<rect x="0.91394" width="67" height="68" rx="15" fill="#2F2F2F"/>
<mask id="mask0_12_16" style="mask-type:alpha" maskUnits="userSpaceOnUse" x="0" y="0" width="68" height="68">
<rect x="0.91394" width="67" height="68" rx="15" fill="white"/>
</mask>
<g mask="url(#mask0_12_16)">
<path d="M3.85882 67.1131L7.01161 -5.43848L22.3073 -0.333732L17.9123 49.3412L18.462 49.5246L45.9137 7.54463L59.0104 11.9155L55.6825 62.0544L56.2646 62.2486L82.6168 19.7939L97.9125 24.8986L56.8601 84.8016L43.2136 80.2473L45.0528 32.7383L44.5354 32.5657L17.5053 71.6674L3.85882 67.1131Z" fill="#EC4B4B"/>
<path d="M-3.14118 67.1131L0.0116137 -5.43848L15.3073 -0.333732L10.9123 49.3412L11.462 49.5246L38.9137 7.54463L52.0104 11.9155L48.6825 62.0544L49.2646 62.2486L75.6168 19.7939L90.9125 24.8986L49.8601 84.8016L36.2136 80.2473L38.0528 32.7383L37.5354 32.5657L10.5053 71.6674L-3.14118 67.1131Z" fill="black"/>
</g>
<path d="M38.9139 7.55078H45.9164L44.6754 9.46661L38.9139 7.55078Z" fill="#EC4B4B"/>
</svg>
